  0
SECTION
  2
HEADER
  9
$ACADVER
  1
AC1009
  9
$ANGDIR
  70
0
  9
$CECOLOR
  62
256
  9
$CELTYPE
  6
BYLAYER
  9
$EXTMIN
  10
0.0
  20
0.0
  9
$EXTMAX
  10
17.4625
  20
41.5925
  9
$FILLMODE
  70
1
  9
$MIRRTEXT
  70
0
  0
ENDSEC
  0
SECTION
  2
TABLES
  0
TABLE
  2
LAYER
  70
17
  0
LAYER
  2
Top_Paste
  70
64
  62
4
  6
CONTINUOUS
  0
ENDTAB
  0
ENDSEC
  0
SECTION
  2
ENTITIES
  0
SOLID
  8
Top_Paste
  10
2.9425
  20
8.5875
  11
4.0425
  21
8.5875
  12
2.9425
  22
7.2875
  13
4.0425
  23
7.2875
  0
SOLID
  8
Top_Paste
  10
1.0425
  20
8.5875
  11
2.1425
  21
8.5875
  12
1.0425
  22
7.2875
  13
2.1425
  23
7.2875
  0
SOLID
  8
Top_Paste
  10
10.78
  20
24.68
  11
12.08
  21
24.68
  12
10.78
  22
23.58
  13
12.08
  23
23.58
  0
SOLID
  8
Top_Paste
  10
10.78
  20
22.78
  11
12.08
  21
22.78
  12
10.78
  22
21.68
  13
12.08
  23
21.68
  0
SOLID
  8
Top_Paste
  10
13.32
  20
24.68
  11
14.62
  21
24.68
  12
13.32
  22
23.58
  13
14.62
  23
23.58
  0
SOLID
  8
Top_Paste
  10
13.32
  20
22.78
  11
14.62
  21
22.78
  12
13.32
  22
21.68
  13
14.62
  23
21.68
  0
SOLID
  8
Top_Paste
  10
2.625
  20
23.51
  11
3.725
  21
23.51
  12
2.625
  22
22.21
  13
3.725
  23
22.21
  0
SOLID
  8
Top_Paste
  10
0.725
  20
23.51
  11
1.825
  21
23.51
  12
0.725
  22
22.21
  13
1.825
  23
22.21
  0
SOLID
  8
Top_Paste
  10
1.99
  20
16.525
  11
3.09
  21
16.525
  12
1.99
  22
15.225
  13
3.09
  23
15.225
  0
SOLID
  8
Top_Paste
  10
3.89
  20
16.525
  11
4.99
  21
16.525
  12
3.89
  22
15.225
  13
4.99
  23
15.225
  0
SOLID
  8
Top_Paste
  10
1.99
  20
20.0175
  11
3.09
  21
20.0175
  12
1.99
  22
18.7175
  13
3.09
  23
18.7175
  0
SOLID
  8
Top_Paste
  10
3.89
  20
20.0175
  11
4.99
  21
20.0175
  12
3.89
  22
18.7175
  13
4.99
  23
18.7175
  0
SOLID
  8
Top_Paste
  10
7.7975
  20
8.27
  11
9.3475
  21
8.27
  12
7.7975
  22
6.97
  13
9.3475
  23
6.97
  0
SOLID
  8
Top_Paste
  10
11.5475
  20
8.27
  11
13.0975
  21
8.27
  12
11.5475
  22
6.97
  13
13.0975
  23
6.97
  0
SOLID
  8
Top_Paste
  10
9.61
  20
6.0475
  11
10.71
  21
6.0475
  12
9.61
  22
4.7475
  13
10.71
  23
4.7475
  0
SOLID
  8
Top_Paste
  10
11.51
  20
6.0475
  11
12.61
  21
6.0475
  12
11.51
  22
4.7475
  13
12.61
  23
4.7475
  0
SOLID
  8
Top_Paste
  10
14.1825
  20
3.0825
  11
15.9825
  21
3.0825
  12
14.1825
  22
1.6825
  13
15.9825
  23
1.6825
  0
SOLID
  8
Top_Paste
  10
8.7825
  20
3.0825
  11
10.5825
  21
3.0825
  12
8.7825
  22
1.6825
  13
10.5825
  23
1.6825
  0
SOLID
  8
Top_Paste
  10
0.9375
  20
5.48
  11
2.2375
  21
5.48
  12
0.9375
  22
4.68
  13
2.2375
  23
4.68
  0
SOLID
  8
Top_Paste
  10
0.9375
  20
2.18
  11
2.2375
  21
2.18
  12
0.9375
  22
1.38
  13
2.2375
  23
1.38
  0
SOLID
  8
Top_Paste
  10
5.8375
  20
2.18
  11
7.1375
  21
2.18
  12
5.8375
  22
1.38
  13
7.1375
  23
1.38
  0
SOLID
  8
Top_Paste
  10
5.8375
  20
5.48
  11
7.1375
  21
5.48
  12
5.8375
  22
4.68
  13
7.1375
  23
4.68
  0
SOLID
  8
Top_Paste
  10
11.8
  20
10.0425
  11
13.6
  21
10.0425
  12
11.8
  22
9.6425
  13
13.6
  23
9.6425
  0
SOLID
  8
Top_Paste
  10
11.8
  20
11.3125
  11
13.6
  21
11.3125
  12
11.8
  22
10.9125
  13
13.6
  23
10.9125
  0
SOLID
  8
Top_Paste
  10
11.8
  20
12.5825
  11
13.6
  21
12.5825
  12
11.8
  22
12.1825
  13
13.6
  23
12.1825
  0
SOLID
  8
Top_Paste
  10
11.8
  20
13.8525
  11
13.6
  21
13.8525
  12
11.8
  22
13.4525
  13
13.6
  23
13.4525
  0
SOLID
  8
Top_Paste
  10
11.8
  20
15.1225
  11
13.6
  21
15.1225
  12
11.8
  22
14.7225
  13
13.6
  23
14.7225
  0
SOLID
  8
Top_Paste
  10
11.8
  20
16.3925
  11
13.6
  21
16.3925
  12
11.8
  22
15.9925
  13
13.6
  23
15.9925
  0
SOLID
  8
Top_Paste
  10
11.8
  20
17.6625
  11
13.6
  21
17.6625
  12
11.8
  22
17.2625
  13
13.6
  23
17.2625
  0
SOLID
  8
Top_Paste
  10
6.4
  20
17.6625
  11
8.2
  21
17.6625
  12
6.4
  22
17.2625
  13
8.2
  23
17.2625
  0
SOLID
  8
Top_Paste
  10
6.4
  20
16.3925
  11
8.2
  21
16.3925
  12
6.4
  22
15.9925
  13
8.2
  23
15.9925
  0
SOLID
  8
Top_Paste
  10
6.4
  20
15.1225
  11
8.2
  21
15.1225
  12
6.4
  22
14.7225
  13
8.2
  23
14.7225
  0
SOLID
  8
Top_Paste
  10
6.4
  20
13.8525
  11
8.2
  21
13.8525
  12
6.4
  22
13.4525
  13
8.2
  23
13.4525
  0
SOLID
  8
Top_Paste
  10
6.4
  20
12.5825
  11
8.2
  21
12.5825
  12
6.4
  22
12.1825
  13
8.2
  23
12.1825
  0
SOLID
  8
Top_Paste
  10
6.4
  20
11.3125
  11
8.2
  21
11.3125
  12
6.4
  22
10.9125
  13
8.2
  23
10.9125
  0
SOLID
  8
Top_Paste
  10
6.4
  20
10.0425
  11
8.2
  21
10.0425
  12
6.4
  22
9.6425
  13
8.2
  23
9.6425
  0
SOLID
  8
Top_Paste
  10
3.385
  20
11.3375
  11
4.235
  21
11.3375
  12
3.385
  22
10.8875
  13
4.235
  23
10.8875
  0
SOLID
  8
Top_Paste
  10
3.385
  20
13.2375
  11
4.235
  21
13.2375
  12
3.385
  22
12.7875
  13
4.235
  23
12.7875
  0
SOLID
  8
Top_Paste
  10
1.085
  20
12.2875
  11
1.935
  21
12.2875
  12
1.085
  22
11.8375
  13
1.935
  23
11.8375
  0
SOLID
  8
Top_Paste
  10
9.2618
  20
40.2225
  11
10.3318
  21
40.2225
  12
9.2618
  22
28.3575
  13
10.3318
  23
28.3575
  0
SOLID
  8
Top_Paste
  10
4.385
  20
40.8448
  11
5.455
  21
40.8448
  12
4.385
  22
28.3448
  13
5.455
  23
28.3448
  0
SOLID
  8
Top_Paste
  10
12.005
  20
40.8448
  11
13.075
  21
40.8448
  12
12.005
  22
28.3448
  13
13.075
  23
28.3448
  0
SOLID
  8
Top_Paste
  10
7.1282
  20
40.2225
  11
8.1982
  21
40.2225
  12
7.1282
  22
28.3575
  13
8.1982
  23
28.3575
  0
SOLID
  8
Top_Paste
  10
13.57
  20
20.6775
  11
14.37
  21
20.6775
  12
13.57
  22
19.3275
  13
14.37
  23
19.3275
  0
SOLID
  8
Top_Paste
  10
10.97
  20
20.6775
  11
11.77
  21
20.6775
  12
10.97
  22
19.3275
  13
11.77
  23
19.3275
  0
ENDSEC
  0
EOF
