G04 DipTrace 3.0.0.2*
G04 TopPaste.gbr*
%MOIN*%
G04 #@! TF.FileFunction,Paste,Top*
G04 #@! TF.Part,Single*
%ADD37R,0.031496X0.05315*%
%ADD39R,0.042126X0.492126*%
%ADD41R,0.042126X0.467126*%
%ADD43R,0.033465X0.017717*%
%ADD45R,0.070866X0.015748*%
%ADD47R,0.051181X0.031496*%
%ADD49R,0.070866X0.055118*%
%ADD53R,0.061024X0.051181*%
%ADD55R,0.051181X0.043307*%
%ADD57R,0.043307X0.051181*%
%FSLAX26Y26*%
G04*
G70*
G90*
G75*
G01*
G04 TopPaste*
%LPD*%
D57*
X531201Y706201D3*
X456398D3*
D55*
X843701Y1343701D3*
Y1268898D3*
X943701Y1343701D3*
Y1268898D3*
D57*
X518701Y1293701D3*
X443898D3*
X493701Y1018701D3*
X568504D3*
X493701Y1156201D3*
X568504D3*
D53*
X731201Y693701D3*
X878839D3*
D57*
X793701Y606201D3*
X868504D3*
D49*
X987500Y487500D3*
X774902D3*
D47*
X456201Y593701D3*
Y463780D3*
X649114D3*
Y593701D3*
D45*
X893701Y781201D3*
Y831201D3*
Y881201D3*
Y931201D3*
Y981201D3*
Y1031201D3*
Y1081201D3*
X681102D3*
Y1031201D3*
Y981201D3*
Y931201D3*
Y881201D3*
Y831201D3*
Y781201D3*
D43*
X543701Y831201D3*
Y906004D3*
X453150Y868602D3*
D41*
X779402Y1743701D3*
D39*
X587402Y1755701D3*
X887402D3*
D41*
X695402Y1743701D3*
D37*
X943701Y1181201D3*
X841339D3*
M02*
