G04 DipTrace 3.0.0.2*
G04 Bottom.gbr*
%MOIN*%
G04 #@! TF.FileFunction,Copper,L2,Bot*
G04 #@! TF.Part,Single*
G04 #@! TA.AperFunction,CopperBalancing*
%ADD14C,0.012992*%
%ADD15C,0.025*%
G04 #@! TA.AperFunction,ComponentPad*
%ADD19C,0.07874*%
G04 #@! TA.AperFunction,ViaPad*
%ADD30C,0.04*%
%FSLAX26Y26*%
G04*
G70*
G90*
G75*
G01*
G04 Bottom*
%LPD*%
X1018701Y868701D2*
D14*
X1006201D1*
X956201Y818701D1*
Y606201D1*
X606201Y1081201D2*
X881201D1*
X968701Y1168701D1*
X1018701D1*
D30*
X956201Y606201D3*
X606201Y1081201D3*
X556201Y531201D3*
X893701Y1468701D3*
X481201Y956201D3*
X768701Y931201D3*
X534660Y1967848D2*
D15*
X940207D1*
X534660Y1942979D2*
X940207D1*
X534660Y1918110D2*
X940207D1*
X534660Y1893241D2*
X940207D1*
X534660Y1868373D2*
X940207D1*
X534660Y1843504D2*
X940207D1*
X534660Y1818635D2*
X940207D1*
X534660Y1793766D2*
X940207D1*
X534660Y1768898D2*
X940207D1*
X534660Y1744029D2*
X940207D1*
X534660Y1719160D2*
X940207D1*
X534660Y1694291D2*
X940207D1*
X534660Y1669423D2*
X940207D1*
X534660Y1644554D2*
X940207D1*
X534660Y1619685D2*
X940207D1*
X534660Y1594816D2*
X940207D1*
X534660Y1569948D2*
X940207D1*
X534660Y1545079D2*
X940207D1*
X534660Y1520210D2*
X940207D1*
X534660Y1495341D2*
X940207D1*
X534660Y1470472D2*
X940207D1*
X534660Y1445604D2*
X940207D1*
X534660Y1420735D2*
X628050D1*
X659367D2*
X940207D1*
X534660Y1395866D2*
X588644D1*
X698772D2*
X940207D1*
X534660Y1370997D2*
X577024D1*
X710394D2*
X940207D1*
X434685Y1346129D2*
X576096D1*
X711272D2*
X1040207D1*
X434685Y1321260D2*
X585374D1*
X702043D2*
X1040207D1*
X434685Y1296391D2*
X589035D1*
X698382D2*
X1040207D1*
X434685Y1271522D2*
X577122D1*
X710247D2*
X1040207D1*
X434685Y1246654D2*
X576047D1*
X711370D2*
X1040207D1*
X434685Y1221785D2*
X585031D1*
X702336D2*
X977219D1*
X434685Y1196916D2*
X589427D1*
X697991D2*
X949143D1*
X434685Y1172047D2*
X577268D1*
X710148D2*
X922923D1*
X434685Y1147178D2*
X575950D1*
X711419D2*
X898068D1*
X434685Y1122310D2*
X582004D1*
X702678D2*
X873167D1*
X434685Y1097441D2*
X560130D1*
X946575D2*
X956955D1*
X434685Y1072572D2*
X558030D1*
X921722D2*
X950462D1*
X434685Y1047703D2*
X571458D1*
X640959D2*
X953782D1*
X434685Y1022835D2*
X968919D1*
X434685Y997966D2*
X957199D1*
X434685Y973097D2*
X950462D1*
X434685Y948228D2*
X953587D1*
X434685Y923360D2*
X968430D1*
X434685Y898491D2*
X957444D1*
X434685Y873622D2*
X950510D1*
X434685Y848753D2*
X937131D1*
X434685Y823885D2*
X921115D1*
X434685Y799016D2*
X920726D1*
X434685Y774147D2*
X920726D1*
X434685Y749278D2*
X920726D1*
X434685Y724409D2*
X920726D1*
X434685Y699541D2*
X920726D1*
X434685Y674672D2*
X920726D1*
X434685Y649803D2*
X920726D1*
X434685Y624934D2*
X911155D1*
X434685Y600066D2*
X907639D1*
X1004778D2*
X1040207D1*
X434685Y575197D2*
X919064D1*
X993352D2*
X1040207D1*
X434685Y550328D2*
X1040207D1*
X434685Y525459D2*
X1040207D1*
X434685Y500591D2*
X1040207D1*
X434685Y475722D2*
X1040207D1*
X434685Y450853D2*
X1040207D1*
X1042711Y607412D2*
X1034076Y604659D1*
X1023869Y603042D1*
X1013533D1*
X1002684Y604840D1*
X1001408Y595348D1*
X999154Y588409D1*
X995841Y581908D1*
X991554Y576007D1*
X986395Y570848D1*
X980493Y566560D1*
X973992Y563248D1*
X967054Y560993D1*
X959849Y559852D1*
X952552D1*
X945348Y560993D1*
X938409Y563248D1*
X931908Y566560D1*
X926007Y570848D1*
X920848Y576007D1*
X916560Y581908D1*
X913248Y588409D1*
X910993Y595348D1*
X909852Y602552D1*
Y609849D1*
X910993Y617054D1*
X913248Y623992D1*
X916560Y630493D1*
X920848Y636395D1*
X923219Y638961D1*
X923314Y821289D1*
X924827Y828895D1*
X928073Y835937D1*
X932874Y842028D1*
X933119Y842253D1*
X953142Y862294D1*
X953042Y873869D1*
X954659Y884076D1*
X957852Y893906D1*
X962545Y903114D1*
X968619Y911475D1*
X975823Y918686D1*
X968619Y925927D1*
X962545Y934287D1*
X957852Y943496D1*
X954659Y953325D1*
X953042Y963533D1*
Y973869D1*
X954659Y984076D1*
X957852Y993906D1*
X962545Y1003114D1*
X968619Y1011475D1*
X975823Y1018686D1*
X968619Y1025927D1*
X962545Y1034287D1*
X957852Y1043496D1*
X954659Y1053325D1*
X953042Y1063533D1*
Y1073869D1*
X954659Y1084076D1*
X957852Y1093906D1*
X962545Y1103114D1*
X968619Y1111475D1*
X975823Y1118686D1*
X970525Y1123865D1*
X902625Y1056117D1*
X896177Y1051808D1*
X888902Y1049125D1*
X881201Y1048213D1*
X880867Y1048226D1*
X638965Y1048213D1*
X633528Y1043588D1*
X627308Y1039776D1*
X620568Y1036984D1*
X613474Y1035281D1*
X606201Y1034709D1*
X598928Y1035281D1*
X591833Y1036984D1*
X585093Y1039776D1*
X578874Y1043588D1*
X573325Y1048325D1*
X568588Y1053874D1*
X564776Y1060093D1*
X561984Y1066833D1*
X560281Y1073928D1*
X559709Y1081201D1*
X560281Y1088474D1*
X561984Y1095568D1*
X564776Y1102308D1*
X568588Y1108528D1*
X573325Y1114076D1*
X578874Y1118814D1*
X586635Y1123336D1*
X582852Y1130996D1*
X579659Y1140825D1*
X578042Y1151033D1*
Y1161369D1*
X579659Y1171576D1*
X582852Y1181406D1*
X587545Y1190614D1*
X593619Y1198975D1*
X600823Y1206186D1*
X593852Y1213156D1*
X587915Y1221190D1*
X583261Y1230031D1*
X579999Y1239474D1*
X578201Y1249302D1*
X577911Y1259287D1*
X579135Y1269202D1*
X581844Y1278819D1*
X585976Y1287915D1*
X591437Y1296280D1*
X598101Y1303724D1*
X600835Y1306189D1*
X593619Y1313427D1*
X587545Y1321787D1*
X582852Y1330996D1*
X579659Y1340825D1*
X578042Y1351033D1*
Y1361369D1*
X579659Y1371576D1*
X582852Y1381406D1*
X587545Y1390614D1*
X593619Y1398975D1*
X600927Y1406282D1*
X609287Y1412357D1*
X618496Y1417050D1*
X628325Y1420243D1*
X638533Y1421860D1*
X648869D1*
X659076Y1420243D1*
X668906Y1417050D1*
X678114Y1412357D1*
X686475Y1406282D1*
X693782Y1398975D1*
X699857Y1390614D1*
X704550Y1381406D1*
X707743Y1371576D1*
X709360Y1361369D1*
Y1351033D1*
X707743Y1340825D1*
X704550Y1330996D1*
X699857Y1321787D1*
X693782Y1313427D1*
X686579Y1306215D1*
X693932Y1298799D1*
X699798Y1290711D1*
X704371Y1281829D1*
X707550Y1272358D1*
X709260Y1262516D1*
X709516Y1253701D1*
X708381Y1243776D1*
X705757Y1234136D1*
X701706Y1225004D1*
X696320Y1216589D1*
X689723Y1209087D1*
X686570Y1206213D1*
X693782Y1198975D1*
X699857Y1190614D1*
X704550Y1181406D1*
X707743Y1171576D1*
X709360Y1161369D1*
Y1151033D1*
X707743Y1140825D1*
X704550Y1130996D1*
X699857Y1121787D1*
X694370Y1114172D1*
X867577Y1114189D1*
X947277Y1193785D1*
X953724Y1198093D1*
X961000Y1200777D1*
X961209Y1200819D1*
X965417Y1207413D1*
X972129Y1215273D1*
X979988Y1221984D1*
X988801Y1227385D1*
X998348Y1231340D1*
X1008398Y1233752D1*
X1018701Y1234563D1*
X1029004Y1233752D1*
X1039054Y1231340D1*
X1042711Y1229990D1*
X1042717Y1367717D1*
X953261Y1367870D1*
X949542Y1369079D1*
X946378Y1371378D1*
X944079Y1374542D1*
X942870Y1378261D1*
X942717Y1392717D1*
Y1992717D1*
X532185D1*
X532031Y1378261D1*
X530823Y1374542D1*
X528524Y1371378D1*
X525360Y1369079D1*
X521640Y1367870D1*
X507185Y1367717D1*
X432185D1*
Y432185D1*
X1042717D1*
Y607332D1*
X597164Y1302738D2*
D14*
X690238Y1209664D1*
Y1302738D2*
X597164Y1209664D1*
D19*
X1018701Y668701D3*
Y768701D3*
Y868701D3*
Y968701D3*
Y1068701D3*
Y1168701D3*
X643701Y1156201D3*
Y1256201D3*
Y1356201D3*
M02*
