G04 DipTrace 3.0.0.2*
G04 Top.gbr*
%MOIN*%
G04 #@! TF.FileFunction,Copper,L1,Top*
G04 #@! TF.Part,Single*
G04 #@! TA.AperFunction,Conductor*
%ADD13C,0.025984*%
G04 #@! TA.AperFunction,CopperBalancing*
%ADD14C,0.012992*%
%ADD15C,0.025*%
%ADD16R,0.051181X0.059055*%
%ADD17R,0.059055X0.051181*%
%ADD18R,0.068898X0.059055*%
G04 #@! TA.AperFunction,ComponentPad*
%ADD19C,0.07874*%
%ADD21R,0.07874X0.062992*%
%ADD23R,0.059055X0.03937*%
%ADD24R,0.07874X0.023622*%
%ADD26R,0.041339X0.025591*%
%ADD27R,0.05X0.475*%
%ADD28R,0.05X0.5*%
%ADD29R,0.03937X0.061024*%
G04 #@! TA.AperFunction,ViaPad*
%ADD30C,0.04*%
%FSLAX26Y26*%
G04*
G70*
G90*
G75*
G01*
G04 Top*
%LPD*%
X453150Y868602D2*
D13*
X431201Y890551D1*
Y1268701D1*
X443898Y1281398D1*
Y1293701D1*
X431201D1*
X587402Y1449902D1*
Y1755701D1*
X456201Y593701D2*
Y706004D1*
X456398Y706201D1*
X453150Y709449D1*
Y868602D1*
X643701Y1356201D2*
X587402Y1412500D1*
Y1755701D1*
X681102Y931201D2*
D14*
X743701D1*
X787450Y974950D1*
Y1337450D1*
X793701Y1343701D1*
X843701D1*
X543701Y831201D2*
X493701Y881201D1*
Y1018701D1*
X843701Y1343701D2*
X943701D1*
X893701Y831201D2*
X843701D1*
X812450Y862451D1*
Y1152312D1*
X841339Y1181201D1*
X843701Y1183563D1*
Y1268898D1*
X893701Y881201D2*
X837450D1*
Y1099950D1*
X918701Y1181201D1*
X943701D1*
Y1268898D1*
X681102Y1031201D2*
X731201D1*
X737450Y1037450D1*
Y1437451D1*
X693701Y1481201D1*
Y1742000D1*
X695402Y1743701D1*
X681102Y981201D2*
X743701D1*
X762450Y999950D1*
Y1726749D1*
X779402Y1743701D1*
X893701Y981201D2*
X943701D1*
X956201Y968701D1*
Y931201D1*
X1018701Y868701D1*
X956201Y606201D2*
Y518799D1*
X987500Y487500D1*
X681102Y831201D2*
X731201D1*
X756201Y806201D1*
Y718701D1*
X731201Y693701D1*
X878839D2*
Y616535D1*
X868504Y606201D1*
X649114Y593701D2*
Y749213D1*
X681102Y781201D1*
X893701D2*
X906201D1*
X1018701Y668701D1*
X893701Y931201D2*
X918701D1*
X956201Y893701D1*
Y818701D1*
X1006201Y768701D1*
X1018701D1*
X893701Y1031201D2*
X956201D1*
X1018701Y968701D1*
X893701Y1081201D2*
X1006201D1*
X1018701Y1068701D1*
X681102Y1081201D2*
X606201D1*
X568504Y1156201D2*
Y1018701D1*
X543701Y993898D1*
Y906004D1*
X568504Y881201D1*
X681102D1*
X643701Y1156201D2*
X568504D1*
D30*
X956201Y606201D3*
X606201Y1081201D3*
X556201Y531201D3*
X893701Y1468701D3*
X481201Y956201D3*
X768701Y931201D3*
X846184Y1506332D2*
D15*
X940988D1*
X846184Y1481463D2*
X940843D1*
X846184Y1456594D2*
X940696D1*
X797942Y1431726D2*
X940550D1*
X797942Y1406857D2*
X940354D1*
X552923Y1357119D2*
X575364D1*
X1002239D2*
X1040207D1*
X1002239Y1332251D2*
X1040207D1*
X573283Y1307382D2*
X596995D1*
X1002239D2*
X1040207D1*
X1002239Y1282513D2*
X1040207D1*
X1002239Y1257644D2*
X1040207D1*
X473186Y1232776D2*
X579660D1*
X473186Y1083563D2*
X533030D1*
X473186Y959219D2*
X508226D1*
X579192D2*
X612718D1*
X473186Y934350D2*
X494016D1*
X593352D2*
X612718D1*
X749455D2*
X776975D1*
X473186Y909482D2*
X494016D1*
X749455D2*
X776975D1*
X749455Y884613D2*
X776975D1*
X750236Y859744D2*
X777072D1*
X593352Y834875D2*
X612718D1*
X776652D2*
X790862D1*
X593352Y810007D2*
X612718D1*
X791448D2*
X815744D1*
X495110Y785138D2*
X612718D1*
X791692D2*
X825315D1*
X585783Y760269D2*
X612718D1*
X791692D2*
X825315D1*
X585783Y735400D2*
X613644D1*
X794622D2*
X815403D1*
X585783Y710531D2*
X613644D1*
X794622D2*
X815403D1*
X585783Y685663D2*
X613644D1*
X794622D2*
X815403D1*
X585783Y660794D2*
X613644D1*
X514739Y635925D2*
X590598D1*
X707610D2*
X739134D1*
X514739Y611056D2*
X590598D1*
X707610D2*
X739134D1*
X514739Y586188D2*
X590598D1*
X707610D2*
X739134D1*
X514739Y561319D2*
X590598D1*
X707610D2*
X739134D1*
X434685Y536450D2*
X706516D1*
X843255D2*
X919163D1*
X434685Y511581D2*
X706516D1*
X843255D2*
X919163D1*
X514739Y486713D2*
X590598D1*
X843255D2*
X919163D1*
X514739Y461844D2*
X590598D1*
X843255D2*
X919163D1*
X514739Y436975D2*
X590598D1*
X843255D2*
X919163D1*
X492623Y762220D2*
X583283D1*
Y650181D1*
X495639D1*
X495685Y639841D1*
X512220Y639878D1*
Y547524D1*
X432192D1*
X432185Y509953D1*
X512220Y509957D1*
Y432173D1*
X593073Y432185D1*
X593094Y509957D1*
X705134D1*
Y432173D1*
X708992Y432185D1*
X709039Y545488D1*
X840764D1*
Y432177D1*
X921686Y432185D1*
X921638Y545488D1*
X923249D1*
X920587Y550181D1*
X741618D1*
Y637690D1*
X705178Y637681D1*
X705134Y547524D1*
X593094D1*
Y639878D1*
X616093D1*
X616126Y742870D1*
X615240Y742898D1*
Y848219D1*
X590862Y847988D1*
Y791913D1*
X496539D1*
Y829306D1*
X492634Y818602D1*
Y762206D1*
X508480Y762172D1*
X795425Y1395783D2*
X942828D1*
X943626Y1531217D1*
X843701Y1531201D1*
X843547Y1466745D1*
X842339Y1463026D1*
X840039Y1459862D1*
X836875Y1457563D1*
X833156Y1456354D1*
X818701Y1456201D1*
X795409D1*
X795438Y1395744D1*
X999720Y1367727D2*
Y1231772D1*
X1008398Y1233752D1*
X1018701Y1234563D1*
X1029004Y1233752D1*
X1039054Y1231340D1*
X1042711Y1229990D1*
X1042717Y1367717D1*
X999699D1*
X543034Y1349720D2*
X570783D1*
Y1237681D1*
X470639D1*
X470685Y1212206D1*
X594693Y1212220D1*
X589283Y1219098D1*
X584298Y1227756D1*
X580678Y1237068D1*
X578510Y1246820D1*
X577841Y1256789D1*
X578688Y1266743D1*
X581030Y1276455D1*
X584815Y1285701D1*
X589954Y1294268D1*
X596329Y1301959D1*
X600835Y1306189D1*
X593619Y1313427D1*
X587545Y1321787D1*
X582852Y1330996D1*
X579659Y1340825D1*
X578042Y1351033D1*
Y1361369D1*
X578538Y1365562D1*
X568722Y1375341D1*
X543056Y1349718D1*
X470671Y1074720D2*
X535534D1*
X535516Y1100196D1*
X470676Y1100181D1*
X470685Y1074706D1*
X510735Y962681D2*
X470676D1*
X470685Y907909D1*
X496554Y907890D1*
X496539Y945291D1*
X510748D1*
X510713Y962693D1*
X615265Y962681D2*
X576690D1*
X576689Y945314D1*
X590862Y945291D1*
Y914188D1*
X615232Y914189D1*
X615240Y962673D1*
X789173Y749720D2*
X792142D1*
Y662172D1*
X817898Y662220D1*
Y749720D1*
X827810D1*
X827839Y802322D1*
X822277Y806117D1*
X789123Y839125D1*
X784323Y845215D1*
X781076Y852257D1*
X779563Y859864D1*
X779462Y970312D1*
X765125Y956117D1*
X758677Y951808D1*
X751402Y949123D1*
X748470Y948572D1*
X746965Y947004D1*
Y860177D1*
X752625Y856285D1*
X781285Y827625D1*
X785593Y821177D1*
X788277Y813902D1*
X789189Y806201D1*
X789176Y805867D1*
X789189Y749706D1*
X531201Y762172D2*
D14*
Y650230D1*
Y706201D2*
X583235D1*
X843701Y1395735D2*
Y1343701D1*
X943701Y1395735D2*
Y1343701D1*
X999672D1*
X518701Y1293701D2*
Y1237730D1*
Y1293701D2*
X570735D1*
X493701Y1074672D2*
Y962730D1*
Y1212172D2*
Y1100230D1*
X793701Y662172D2*
Y550230D1*
X741667Y606201D2*
X793701D1*
X774902Y545440D2*
Y487500D1*
X709088D2*
X840715D1*
X649114Y509908D2*
Y463780D1*
X593143D2*
X705085D1*
X615289Y931201D2*
X746916D1*
X543701Y831201D2*
Y791962D1*
X496588Y831201D2*
X590814D1*
X597164Y1302738D2*
X643701Y1256201D1*
X597164Y1209664D1*
D16*
X531201Y706201D3*
X456398D3*
D17*
X843701Y1343701D3*
Y1268898D3*
X943701Y1343701D3*
Y1268898D3*
D16*
X518701Y1293701D3*
X443898D3*
X493701Y1018701D3*
X568504D3*
X493701Y1156201D3*
X568504D3*
D18*
X731201Y693701D3*
X878839D3*
D19*
X1018701Y668701D3*
Y768701D3*
Y868701D3*
Y968701D3*
Y1068701D3*
Y1168701D3*
X643701Y1156201D3*
Y1256201D3*
Y1356201D3*
D16*
X793701Y606201D3*
X868504D3*
D21*
X987500Y487500D3*
X774902D3*
D23*
X456201Y593701D3*
Y463780D3*
X649114D3*
Y593701D3*
D24*
X893701Y781201D3*
Y831201D3*
Y881201D3*
Y931201D3*
Y981201D3*
Y1031201D3*
Y1081201D3*
X681102D3*
Y1031201D3*
Y981201D3*
Y931201D3*
Y881201D3*
Y831201D3*
Y781201D3*
D26*
X543701Y831201D3*
Y906004D3*
X453150Y868602D3*
D27*
X779402Y1743701D3*
D28*
X587402Y1755701D3*
X887402D3*
D27*
X695402Y1743701D3*
D29*
X943701Y1181201D3*
X841339D3*
M02*
