G04 DipTrace 3.0.0.2*
G04 TopMask.gbr*
%MOIN*%
G04 #@! TF.FileFunction,Soldermask,Top*
G04 #@! TF.Part,Single*
%ADD36R,0.047244X0.068898*%
%ADD38R,0.057874X0.507874*%
%ADD40R,0.057874X0.482874*%
%ADD42R,0.049213X0.033465*%
%ADD44R,0.086614X0.031496*%
%ADD46R,0.066929X0.047244*%
%ADD48R,0.086614X0.070866*%
%ADD50C,0.086614*%
%ADD52R,0.076772X0.066929*%
%ADD54R,0.066929X0.059055*%
%ADD56R,0.059055X0.066929*%
%FSLAX26Y26*%
G04*
G70*
G90*
G75*
G01*
G04 TopMask*
%LPD*%
D56*
X531201Y706201D3*
X456398D3*
D54*
X843701Y1343701D3*
Y1268898D3*
X943701Y1343701D3*
Y1268898D3*
D56*
X518701Y1293701D3*
X443898D3*
X493701Y1018701D3*
X568504D3*
X493701Y1156201D3*
X568504D3*
D52*
X731201Y693701D3*
X878839D3*
D50*
X1018701Y668701D3*
Y768701D3*
Y868701D3*
Y968701D3*
Y1068701D3*
Y1168701D3*
X643701Y1156201D3*
Y1256201D3*
Y1356201D3*
D56*
X793701Y606201D3*
X868504D3*
D48*
X987500Y487500D3*
X774902D3*
D46*
X456201Y593701D3*
Y463780D3*
X649114D3*
Y593701D3*
D44*
X893701Y781201D3*
Y831201D3*
Y881201D3*
Y931201D3*
Y981201D3*
Y1031201D3*
Y1081201D3*
X681102D3*
Y1031201D3*
Y981201D3*
Y931201D3*
Y881201D3*
Y831201D3*
Y781201D3*
D42*
X543701Y831201D3*
Y906004D3*
X453150Y868602D3*
D40*
X779402Y1743701D3*
D38*
X587402Y1755701D3*
X887402D3*
D40*
X695402Y1743701D3*
D36*
X943701Y1181201D3*
X841339D3*
M02*
