G04 DipTrace 3.0.0.2*
G04 TopSilk.gbr*
%MOIN*%
G04 #@! TF.FileFunction,Legend,Top*
G04 #@! TF.Part,Single*
%ADD10C,0.009843*%
%ADD20C,0.025008*%
%ADD22C,0.018746*%
%ADD25C,0.015422*%
%ADD58C,0.004632*%
%FSLAX26Y26*%
G04*
G70*
G90*
G75*
G01*
G04 TopSilk*
%LPD*%
X572560Y731772D2*
D10*
Y680630D1*
X818130Y1385060D2*
X869272D1*
X918130D2*
X969272D1*
X560060Y1319272D2*
Y1268130D1*
X452341Y993130D2*
Y1044272D1*
Y1130630D2*
Y1181772D1*
X836266Y718699D2*
Y668703D1*
X830030Y693701D2*
X805020Y718699D1*
X830030Y693701D2*
X805020Y668703D1*
X798762Y693701D2*
X773774D1*
X805020Y718699D2*
Y668703D1*
X999305Y558366D2*
X763089D1*
X999305Y416634D2*
X763089D1*
X999305D2*
Y440261D1*
Y558366D2*
Y534739D1*
X763089Y558366D2*
Y534739D1*
Y440261D2*
Y416634D1*
X999305Y432380D2*
X979593D1*
Y444187D1*
Y526873D2*
Y542620D1*
X999305D1*
X936312Y459947D2*
X826082D1*
Y515053D1*
X936312D1*
Y459947D1*
G36*
X924478Y471754D2*
X837916D1*
Y503246D1*
X924478D1*
Y471754D1*
G37*
X920556Y475694D2*
D10*
X936312Y459947D1*
X841839Y475694D2*
X826082Y459947D1*
X841839Y499306D2*
X826082Y515053D1*
X920556Y499306D2*
X932389Y515053D1*
D20*
X1049925Y487500D3*
D22*
X666648Y417049D3*
X651076Y627165D2*
D10*
X454239D1*
X603832Y430306D2*
X454239D1*
X651076Y564172D2*
Y493300D1*
X454239Y564172D2*
Y493300D1*
X603832Y430306D2*
X615650Y438186D1*
X838590Y761904D2*
Y1100497D1*
X736213Y761904D2*
Y1100497D1*
X838590D2*
X736213D1*
X838590Y761904D2*
X807096D1*
X767707D2*
X736213D1*
X807096D2*
G03X767707Y761904I-19694J12D01*
G01*
D25*
X558410Y800352D3*
X508268Y809553D2*
D10*
Y927657D1*
X488583D1*
Y809553D1*
X508268D1*
X504215Y772499D2*
D58*
X502789Y775351D1*
X499904Y778236D1*
X497052Y779662D1*
X491315D1*
X488430Y778236D1*
X485578Y775351D1*
X484119Y772499D1*
X482693Y768188D1*
Y760992D1*
X484119Y756714D1*
X485578Y753829D1*
X488430Y750977D1*
X491315Y749518D1*
X497052D1*
X499904Y750977D1*
X502789Y753829D1*
X504215Y756714D1*
X513478Y773892D2*
X516364Y775351D1*
X520675Y779629D1*
Y749518D1*
X835271Y1425955D2*
X833845Y1428807D1*
X830960Y1431692D1*
X828108Y1433118D1*
X822371D1*
X819486Y1431692D1*
X816634Y1428807D1*
X815175Y1425955D1*
X813749Y1421644D1*
Y1414448D1*
X815175Y1410170D1*
X816634Y1407285D1*
X819486Y1404433D1*
X822371Y1402974D1*
X828108D1*
X830960Y1404433D1*
X833845Y1407285D1*
X835271Y1410170D1*
X851697Y1433084D2*
X847420Y1431658D1*
X845961Y1428807D1*
Y1425921D1*
X847420Y1423070D1*
X850272Y1421610D1*
X856009Y1420185D1*
X860320Y1418759D1*
X863171Y1415873D1*
X864597Y1413022D1*
Y1408711D1*
X863171Y1405859D1*
X861745Y1404400D1*
X857434Y1402974D1*
X851697D1*
X847420Y1404400D1*
X845961Y1405859D1*
X844535Y1408711D1*
Y1413022D1*
X845961Y1415873D1*
X848846Y1418759D1*
X853123Y1420185D1*
X858860Y1421610D1*
X861745Y1423070D1*
X863171Y1425921D1*
Y1428807D1*
X861745Y1431658D1*
X857434Y1433084D1*
X851697D1*
X935967Y1425955D2*
X934541Y1428807D1*
X931656Y1431692D1*
X928804Y1433118D1*
X923067D1*
X920182Y1431692D1*
X917331Y1428807D1*
X915871Y1425955D1*
X914445Y1421644D1*
Y1414448D1*
X915871Y1410170D1*
X917331Y1407285D1*
X920182Y1404433D1*
X923067Y1402974D1*
X928804D1*
X931656Y1404433D1*
X934541Y1407285D1*
X935967Y1410170D1*
X963901Y1423070D2*
X962442Y1418759D1*
X959590Y1415873D1*
X955279Y1414448D1*
X953853D1*
X949542Y1415873D1*
X946690Y1418759D1*
X945231Y1423070D1*
Y1424496D1*
X946690Y1428807D1*
X949542Y1431658D1*
X953853Y1433084D1*
X955279D1*
X959590Y1431658D1*
X962442Y1428807D1*
X963901Y1423070D1*
Y1415873D1*
X962442Y1408711D1*
X959590Y1404400D1*
X955279Y1402974D1*
X952427D1*
X948116Y1404400D1*
X946690Y1407285D1*
X477035Y1372499D2*
X475609Y1375351D1*
X472724Y1378236D1*
X469872Y1379662D1*
X464135D1*
X461250Y1378236D1*
X458398Y1375351D1*
X456939Y1372499D1*
X455513Y1368188D1*
Y1360992D1*
X456939Y1356714D1*
X458398Y1353829D1*
X461250Y1350977D1*
X464135Y1349518D1*
X469872D1*
X472724Y1350977D1*
X475609Y1353829D1*
X477035Y1356714D1*
X486299Y1373892D2*
X489184Y1375351D1*
X493495Y1379629D1*
Y1349518D1*
X511380Y1379629D2*
X507069Y1378203D1*
X504184Y1373892D1*
X502758Y1366729D1*
Y1362418D1*
X504184Y1355255D1*
X507069Y1350944D1*
X511380Y1349518D1*
X514232D1*
X518543Y1350944D1*
X521395Y1355255D1*
X522854Y1362418D1*
Y1366729D1*
X521395Y1373892D1*
X518543Y1378203D1*
X514232Y1379629D1*
X511380D1*
X521395Y1373892D2*
X504184Y1355255D1*
X517519Y1084999D2*
X516093Y1087851D1*
X513208Y1090736D1*
X510356Y1092162D1*
X504619D1*
X501734Y1090736D1*
X498882Y1087851D1*
X497423Y1084999D1*
X495997Y1080688D1*
Y1073492D1*
X497423Y1069214D1*
X498882Y1066329D1*
X501734Y1063477D1*
X504619Y1062018D1*
X510356D1*
X513208Y1063477D1*
X516093Y1066329D1*
X517519Y1069214D1*
X526783Y1086392D2*
X529668Y1087851D1*
X533979Y1092129D1*
Y1062018D1*
X543242Y1086392D2*
X546127Y1087851D1*
X550438Y1092129D1*
Y1062018D1*
X511069Y1222499D2*
X509643Y1225351D1*
X506758Y1228236D1*
X503906Y1229662D1*
X498169D1*
X495284Y1228236D1*
X492432Y1225351D1*
X490973Y1222499D1*
X489547Y1218188D1*
Y1210992D1*
X490973Y1206714D1*
X492432Y1203829D1*
X495284Y1200977D1*
X498169Y1199518D1*
X503906D1*
X506758Y1200977D1*
X509643Y1203829D1*
X511069Y1206714D1*
X520333Y1223892D2*
X523218Y1225351D1*
X527529Y1229629D1*
Y1199518D1*
X538252Y1222466D2*
Y1223892D1*
X539677Y1226777D1*
X541103Y1228203D1*
X543989Y1229629D1*
X549725D1*
X552577Y1228203D1*
X554003Y1226777D1*
X555462Y1223892D1*
Y1221040D1*
X554003Y1218155D1*
X551151Y1213877D1*
X536792Y1199518D1*
X556888D1*
X786742Y754662D2*
Y724518D1*
X796790D1*
X801101Y725977D1*
X803986Y728829D1*
X805412Y731714D1*
X806838Y735992D1*
Y743188D1*
X805412Y747499D1*
X803986Y750351D1*
X801101Y753236D1*
X796790Y754662D1*
X786742D1*
X816101Y748892D2*
X818986Y750351D1*
X823298Y754629D1*
Y724518D1*
X706391Y609054D2*
X719291D1*
X723602Y610513D1*
X725061Y611939D1*
X726487Y614791D1*
Y617676D1*
X725061Y620528D1*
X723602Y621987D1*
X719291Y623413D1*
X706391D1*
Y593269D1*
X716439Y609054D2*
X726487Y593269D1*
X742914Y623380D2*
X738636Y621954D1*
X737177Y619102D1*
Y616217D1*
X738636Y613365D1*
X741488Y611906D1*
X747225Y610480D1*
X751536Y609054D1*
X754388Y606169D1*
X755814Y603317D1*
Y599006D1*
X754388Y596154D1*
X752962Y594695D1*
X748651Y593269D1*
X742914D1*
X738636Y594695D1*
X737177Y596154D1*
X735751Y599006D1*
Y603317D1*
X737177Y606169D1*
X740062Y609054D1*
X744340Y610480D1*
X750077Y611906D1*
X752962Y613365D1*
X754388Y616217D1*
Y619102D1*
X752962Y621954D1*
X748651Y623380D1*
X742914D1*
X950798Y610489D2*
X947947Y613374D1*
X943636Y614800D1*
X937899D1*
X933588Y613374D1*
X930702Y610489D1*
Y607637D1*
X932162Y604752D1*
X933588Y603326D1*
X936439Y601900D1*
X945062Y599015D1*
X947947Y597589D1*
X949373Y596130D1*
X950798Y593278D1*
Y588967D1*
X947947Y586115D1*
X943636Y584656D1*
X937899D1*
X933588Y586115D1*
X930702Y588967D1*
X960062Y609030D2*
X962947Y610489D1*
X967258Y614767D1*
Y584656D1*
X534380Y558599D2*
Y537077D1*
X535806Y532766D1*
X538691Y529914D1*
X543002Y528455D1*
X545854D1*
X550165Y529914D1*
X553050Y532766D1*
X554476Y537077D1*
Y558599D1*
X563739Y552829D2*
X566624Y554288D1*
X570935Y558566D1*
Y528455D1*
X762690Y1144431D2*
Y1122909D1*
X764116Y1118598D1*
X767001Y1115746D1*
X771312Y1114287D1*
X774164D1*
X778475Y1115746D1*
X781360Y1118598D1*
X782786Y1122909D1*
Y1144431D1*
X799213Y1144398D2*
X794935Y1142972D1*
X793476Y1140120D1*
Y1137235D1*
X794935Y1134383D1*
X797787Y1132924D1*
X803524Y1131498D1*
X807835Y1130072D1*
X810687Y1127187D1*
X812113Y1124335D1*
Y1120024D1*
X810687Y1117172D1*
X809261Y1115713D1*
X804950Y1114287D1*
X799213D1*
X794935Y1115713D1*
X793476Y1117172D1*
X792050Y1120024D1*
Y1124335D1*
X793476Y1127187D1*
X796361Y1130072D1*
X800639Y1131498D1*
X806376Y1132924D1*
X809261Y1134383D1*
X810687Y1137235D1*
Y1140120D1*
X809261Y1142972D1*
X804950Y1144398D1*
X799213D1*
X425286Y959091D2*
Y937569D1*
X426712Y933258D1*
X429597Y930406D1*
X433908Y928947D1*
X436760D1*
X441071Y930406D1*
X443956Y933258D1*
X445382Y937569D1*
Y959091D1*
X473315Y949043D2*
X471856Y944732D1*
X469004Y941847D1*
X464693Y940421D1*
X463267D1*
X458956Y941847D1*
X456104Y944732D1*
X454645Y949043D1*
Y950469D1*
X456104Y954780D1*
X458956Y957632D1*
X463267Y959058D1*
X464693D1*
X469004Y957632D1*
X471856Y954780D1*
X473315Y949043D1*
Y941847D1*
X471856Y934684D1*
X469004Y930373D1*
X464693Y928947D1*
X461841D1*
X457530Y930373D1*
X456104Y933258D1*
X760316Y1205646D2*
X771790Y1191287D1*
Y1175502D1*
X783264Y1205646D2*
X771790Y1191287D1*
X792527Y1199876D2*
X795412Y1201335D1*
X799723Y1205613D1*
Y1175502D1*
X952904Y640428D2*
X983048D1*
X957215D2*
X954363Y642447D1*
X952904Y644443D1*
Y647461D1*
X954363Y649481D1*
X957215Y651477D1*
X961526Y652498D1*
X964411D1*
X968689Y651477D1*
X971574Y649481D1*
X973000Y647461D1*
Y644443D1*
X971574Y642447D1*
X968689Y640428D1*
X952904Y671031D2*
X973000Y671030D1*
X957215D2*
X954330Y669034D1*
X952904Y667015D1*
Y664020D1*
X954330Y662001D1*
X957215Y660004D1*
X961526Y658983D1*
X964378D1*
X968689Y660004D1*
X971541Y662001D1*
X973000Y664020D1*
Y667015D1*
X971541Y669034D1*
X968689Y671030D1*
X942890Y683550D2*
X944315Y680533D1*
X948627Y678513D1*
X955789Y677515D1*
X960100D1*
X967263Y678513D1*
X971574Y680533D1*
X973000Y683550D1*
Y685547D1*
X971574Y688564D1*
X967263Y690561D1*
X960100Y691582D1*
X955789D1*
X948627Y690561D1*
X944315Y688564D1*
X942890Y685547D1*
Y683550D1*
X948627Y690561D2*
X967263Y678513D1*
X942890Y710114D2*
Y700086D1*
X955789Y699088D1*
X954363Y700086D1*
X952904Y703104D1*
Y706098D1*
X954363Y709116D1*
X957215Y711136D1*
X961526Y712134D1*
X964378D1*
X968689Y711136D1*
X971574Y709116D1*
X973000Y706098D1*
Y703104D1*
X971574Y700086D1*
X970115Y699088D1*
X967263Y698067D1*
X952904Y740428D2*
X983048D1*
X957215D2*
X954363Y742447D1*
X952904Y744443D1*
Y747461D1*
X954363Y749481D1*
X957215Y751477D1*
X961526Y752498D1*
X964411D1*
X968689Y751477D1*
X971574Y749481D1*
X973000Y747461D1*
Y744443D1*
X971574Y742447D1*
X968689Y740428D1*
X952904Y771031D2*
X973000Y771030D1*
X957215D2*
X954330Y769034D1*
X952904Y767015D1*
Y764020D1*
X954330Y762001D1*
X957215Y760004D1*
X961526Y758983D1*
X964378D1*
X968689Y760004D1*
X971541Y762001D1*
X973000Y764020D1*
Y767015D1*
X971541Y769034D1*
X968689Y771030D1*
X948627Y777515D2*
X947167Y779535D1*
X942890Y782552D1*
X973000D1*
Y799088D2*
X942890D1*
X962952Y789037D1*
Y804102D1*
X952904Y840428D2*
X983048D1*
X957215D2*
X954363Y842447D1*
X952904Y844443D1*
Y847461D1*
X954363Y849481D1*
X957215Y851477D1*
X961526Y852498D1*
X964411D1*
X968689Y851477D1*
X971574Y849481D1*
X973000Y847461D1*
Y844443D1*
X971574Y842447D1*
X968689Y840428D1*
X952904Y871031D2*
X973000Y871030D1*
X957215D2*
X954330Y869034D1*
X952904Y867015D1*
Y864020D1*
X954330Y862001D1*
X957215Y860004D1*
X961526Y858983D1*
X964378D1*
X968689Y860004D1*
X971541Y862001D1*
X973000Y864020D1*
Y867015D1*
X971541Y869034D1*
X968689Y871030D1*
X948627Y877515D2*
X947167Y879535D1*
X942890Y882552D1*
X973000D1*
X942890Y901084D2*
Y891056D1*
X955789Y890058D1*
X954363Y891056D1*
X952904Y894074D1*
Y897068D1*
X954363Y900086D1*
X957215Y902106D1*
X961526Y903104D1*
X964378D1*
X968689Y902106D1*
X971574Y900086D1*
X973000Y897068D1*
Y894074D1*
X971574Y891056D1*
X970115Y890058D1*
X967263Y889037D1*
X952904Y927928D2*
X983048D1*
X957215D2*
X954363Y929947D1*
X952904Y931943D1*
Y934961D1*
X954363Y936981D1*
X957215Y938977D1*
X961526Y939998D1*
X964411D1*
X968689Y938977D1*
X971574Y936981D1*
X973000Y934961D1*
Y931943D1*
X971574Y929947D1*
X968689Y927928D1*
X952904Y958531D2*
X973000Y958530D1*
X957215D2*
X954330Y956534D1*
X952904Y954515D1*
Y951520D1*
X954330Y949501D1*
X957215Y947504D1*
X961526Y946483D1*
X964378D1*
X968689Y947504D1*
X971541Y949501D1*
X973000Y951520D1*
Y954515D1*
X971541Y956534D1*
X968689Y958530D1*
X950052Y966036D2*
X948627D1*
X945741Y967035D1*
X944315Y968033D1*
X942890Y970052D1*
Y974068D1*
X944315Y976064D1*
X945741Y977063D1*
X948627Y978084D1*
X951478D1*
X954363Y977063D1*
X958641Y975066D1*
X973000Y965015D1*
Y979082D1*
X942890Y990581D2*
X944315Y987586D1*
X947167Y986565D1*
X950052D1*
X952904Y987586D1*
X954363Y989583D1*
X955789Y993598D1*
X957215Y996616D1*
X960100Y998612D1*
X962952Y999611D1*
X967263D1*
X970115Y998612D1*
X971574Y997614D1*
X973000Y994597D1*
Y990581D1*
X971574Y987586D1*
X970115Y986565D1*
X967263Y985567D1*
X962952D1*
X960100Y986565D1*
X957215Y988584D1*
X955789Y991579D1*
X954363Y995595D1*
X952904Y997614D1*
X950052Y998612D1*
X947167D1*
X944315Y997614D1*
X942890Y994597D1*
Y990581D1*
X952904Y1027928D2*
X983048D1*
X957215D2*
X954363Y1029947D1*
X952904Y1031943D1*
Y1034961D1*
X954363Y1036981D1*
X957215Y1038977D1*
X961526Y1039998D1*
X964411D1*
X968689Y1038977D1*
X971574Y1036981D1*
X973000Y1034961D1*
Y1031943D1*
X971574Y1029947D1*
X968689Y1027928D1*
X952904Y1058531D2*
X973000Y1058530D1*
X957215D2*
X954330Y1056534D1*
X952904Y1054515D1*
Y1051520D1*
X954330Y1049501D1*
X957215Y1047504D1*
X961526Y1046483D1*
X964378D1*
X968689Y1047504D1*
X971541Y1049501D1*
X973000Y1051520D1*
Y1054515D1*
X971541Y1056534D1*
X968689Y1058530D1*
X942890Y1067035D2*
Y1078061D1*
X954363Y1072049D1*
Y1075066D1*
X955789Y1077063D1*
X957215Y1078061D1*
X961526Y1079082D1*
X964378D1*
X968689Y1078061D1*
X971574Y1076064D1*
X973000Y1073047D1*
Y1070029D1*
X971574Y1067034D1*
X970115Y1066036D1*
X967263Y1065015D1*
X942890Y1091602D2*
X944315Y1088584D1*
X948627Y1086565D1*
X955789Y1085567D1*
X960100D1*
X967263Y1086565D1*
X971574Y1088584D1*
X973000Y1091602D1*
Y1093598D1*
X971574Y1096616D1*
X967263Y1098612D1*
X960100Y1099634D1*
X955789D1*
X948627Y1098612D1*
X944315Y1096616D1*
X942890Y1093598D1*
Y1091602D1*
X948627Y1098612D2*
X967263Y1086565D1*
X1015404Y1240428D2*
X1045548D1*
X1019715D2*
X1016863Y1242447D1*
X1015404Y1244443D1*
Y1247461D1*
X1016863Y1249481D1*
X1019715Y1251477D1*
X1024026Y1252498D1*
X1026911D1*
X1031189Y1251477D1*
X1034074Y1249481D1*
X1035500Y1247461D1*
Y1244443D1*
X1034074Y1242447D1*
X1031189Y1240428D1*
X1015404Y1271031D2*
X1035500Y1271030D1*
X1019715D2*
X1016830Y1269034D1*
X1015404Y1267015D1*
Y1264020D1*
X1016830Y1262001D1*
X1019715Y1260004D1*
X1024026Y1258983D1*
X1026878D1*
X1031189Y1260004D1*
X1034041Y1262001D1*
X1035500Y1264020D1*
Y1267015D1*
X1034041Y1269034D1*
X1031189Y1271030D1*
X1005390Y1279535D2*
Y1290561D1*
X1016863Y1284549D1*
Y1287566D1*
X1018289Y1289563D1*
X1019715Y1290561D1*
X1024026Y1291582D1*
X1026878D1*
X1031189Y1290561D1*
X1034074Y1288564D1*
X1035500Y1285547D1*
Y1282529D1*
X1034074Y1279534D1*
X1032615Y1278536D1*
X1029763Y1277515D1*
X1011127Y1298067D2*
X1009667Y1300086D1*
X1005390Y1303104D1*
X1035500D1*
X700019Y1242993D2*
X697167Y1241995D1*
X694282Y1239975D1*
X692856Y1237979D1*
Y1233963D1*
X694282Y1231943D1*
X697167Y1229947D1*
X700019Y1228926D1*
X704330Y1227928D1*
X711526D1*
X715804Y1228926D1*
X718689Y1229947D1*
X721541Y1231943D1*
X723000Y1233963D1*
Y1237979D1*
X721541Y1239975D1*
X718689Y1241995D1*
X715804Y1242993D1*
X711526D1*
Y1237979D1*
X692856Y1263545D2*
X723000D1*
X692856Y1249477D1*
X723000D1*
X692856Y1270029D2*
X723000D1*
Y1277063D1*
X721541Y1280080D1*
X718689Y1282100D1*
X715804Y1283098D1*
X711526Y1284096D1*
X704330D1*
X700019Y1283098D1*
X697167Y1282100D1*
X694282Y1280080D1*
X692856Y1277063D1*
Y1270029D1*
X692890Y1352475D2*
X692889Y1342447D1*
X705789Y1341449D1*
X704363Y1342447D1*
X702904Y1345465D1*
Y1348459D1*
X704363Y1351477D1*
X707215Y1353497D1*
X711526Y1354495D1*
X714378D1*
X718689Y1353497D1*
X721574Y1351477D1*
X723000Y1348459D1*
Y1345465D1*
X721574Y1342447D1*
X720115Y1341449D1*
X717263Y1340428D1*
X692856Y1360979D2*
X723000Y1369011D1*
X692856Y1377043D1*
Y1127928D2*
X723000Y1135959D1*
X692856Y1143991D1*
X700019Y1165541D2*
X697167Y1164543D1*
X694282Y1162523D1*
X692856Y1160527D1*
Y1156511D1*
X694282Y1154491D1*
X697167Y1152495D1*
X700019Y1151474D1*
X704330Y1150476D1*
X711526D1*
X715804Y1151474D1*
X718689Y1152495D1*
X721541Y1154491D1*
X723000Y1156511D1*
Y1160527D1*
X721541Y1162523D1*
X718689Y1164543D1*
X715804Y1165541D1*
X700019Y1187091D2*
X697167Y1186093D1*
X694282Y1184073D1*
X692856Y1182077D1*
Y1178061D1*
X694282Y1176041D1*
X697167Y1174045D1*
X700019Y1173024D1*
X704330Y1172025D1*
X711526D1*
X715804Y1173023D1*
X718689Y1174045D1*
X721541Y1176041D1*
X723000Y1178061D1*
Y1182077D1*
X721541Y1184073D1*
X718689Y1186093D1*
X715804Y1187091D1*
M02*
